#!OML:ASF F:\VICON\USERDATA\INSTALL\rory3\rory3.ASF
:FULLY-SPECIFIED
:DEGREES
72
root 1.3254400717823156 17.8529556776974 51.333475240130355 -3.770919449678998 0.8110559801270312 -0.034697842193254225
lfemur 7.086005270494761 -3.6567460719514293 -24.539059954326213
ltibia 23.007523001857088
lfoot -4.385019510798504 -6.151380844729334
ltoes -12.005271024496727
rfemur -27.37338501821783 -0.6711406343453916 22.043593712746777
rtibia 51.20094469083855
rfoot -9.396252084894199 -6.034493620366012
rtoes 1.903878026203597
lowerback 10.511415293893318 -1.5974303634920914 -2.5247380924482643
upperback -0.15418771800250952 -2.468056660663635 1.5917207744469024
thorax -5.987850447926031 -1.160006422151117 3.6748294457406256
lowerneck -16.994676187265714 -3.2224103253985406 -1.920435268132976
upperneck 21.89572288015901 -4.297513774731463 1.7672786259264683
head 9.870862181682032 -1.992545296801572 0.41316896796315095
lclavicle -2.5552851991644877e-15 -2.7537687015239763e-15
lhumerus -25.480688176381477 -1.6092247689631303 80.86465094369592
lradius 28.85964650953706
lwrist 7.679053936108298
lhand -29.473242144965972 19.147193250525703
lfingers nan
lthumb -2.4569516507176887 49.59936713537803
rclavicle -2.6471907859631173e-15 -2.7978762857663447e-15
rhumerus -33.937129438239566 -21.6050749923922 -78.13807121186976
rradius 30.926396239043
rwrist -0.34313149150059585
rhand -17.530890318402346 22.308564536797135
rfingers nan
rthumb 8.674005087503044 -7.557238187037188
73
root 1.3751833383562024 17.86891556606177 51.91624434425033 -3.6309788265836715 0.6034096804532321 0.04344088787222411
lfemur 9.090610661637088 -3.6710359604541423 -24.465779832732725
ltibia 22.8651800347226
lfoot -3.5222231329387097 -6.322997337364984
ltoes -11.074106012861431
rfemur -27.112739601604574 -0.5156480612182577 22.30480288176873
rtibia 46.15841639929037
rfoot -9.5863770284944 -5.743166574430569
rtoes 1.4334660228425906
lowerback 10.387751446061088 -1.7775199662002907 -2.5977512234372604
upperback -0.23328586373796412 -2.632446005042852 1.7885245230725126
thorax -5.9471428966924345 -1.2402144079508688 3.8954609819001877
lowerneck -16.894794180961792 -3.144703273263564 -2.0168146694105475
upperneck 22.091440419335218 -4.129101698959051 1.5950832474337244
head 9.922830154168697 -1.9390238896840704 0.38988356717073047
lclavicle -2.557718558824464e-15 -2.7542079488230844e-15
lhumerus -25.628765845933156 -1.560601773765668 80.92772141902596
lradius 28.134262398861697
lwrist 7.961856844692877
lhand -29.370924491310802 19.327471187702873
lfingers nan
lthumb -2.397688621533561 49.65700495916089
rclavicle -2.650408683833438e-15 -2.7974239639560965e-15
rhumerus -34.424705817383355 -22.21057722809836 -77.72321258304015
rradius 31.32552676275236
rwrist 0.36020367079983817
rhand -17.509066621061592 22.503140285177626
rfingers nan
rthumb 8.715945519136827 -7.26527561806538
74
root 1.4283551349916348 17.8882407430177 52.83849710055531 -3.389842155780937 0.5739393245471204 0.01660082971754795
lfemur 10.079853335868107 -3.8823345409630106 -24.41185210419693
ltibia 23.828455352428833
lfoot -3.7181452249262974 -7.018880331430461
ltoes -9.895783528710682
rfemur -26.352313984662327 -0.4776204663020618 22.705445940768342
rtibia 40.874091763657574
rfoot -9.91269056928113 -5.578356351939117
rtoes 1.0109958916906827
lowerback 10.286469964702555 -1.942309173449708 -2.4724576699593213
upperback -0.3131589758369605 -2.707905311499319 1.965483881119877
thorax -5.948730649511795 -1.2979868863843431 3.9901939532898902
lowerneck -16.805084934143714 -3.0890095876605863 -2.0803563192356616
upperneck 22.23904665747157 -4.00571208716144 1.4232567379810916
head 9.962218183366266 -1.9031395800272168 0.3534670622681587
lclavicle -2.560130923373963e-15 -2.754962469579574e-15
lhumerus -25.93934298761748 -1.4407531028124505 81.03011655392343
lradius 27.264721914207286
lwrist 8.209684669792043
lhand -29.422104000555446 19.07884589086781
lfingers nan
lthumb -2.35687641492678 49.561865612420874
rclavicle -2.6530541426746104e-15 -2.797301534483079e-15
rhumerus -34.758582966826985 -22.712977609314407 -77.2547934528458
rradius 31.6882563680469
rwrist 1.6713000237234445
rhand -17.49646895022232 22.723529423848532
rfingers nan
rthumb 8.788823689128135 -6.885358091041748
75
root 1.495073676046124 17.91301594426213 54.712415165704215 -3.228160079394066 0.6179400037919508 0.45003943244999256
lfemur 10.540877337569801 -4.09737673271329 -24.738533422572303
ltibia 25.761763603545457
lfoot -3.8781999069678497 -6.559883641756444
ltoes -9.142846203974127
rfemur -25.074186755866688 -0.562567778139619 22.731319282345932
rtibia 35.93776548123998
rfoot -10.486936253572592 -5.986417489052576
rtoes 0.5169590547533938
lowerback 10.199462072253382 -2.0756514598291997 -2.63432069341237
upperback -0.3448392057157529 -2.9000717866591295 1.9752298897794351
thorax -5.903587656557648 -1.383671219184097 4.148192268689416
lowerneck -16.749960575350098 -3.0570137195404183 -2.1058550064051413
upperneck 22.313819791001013 -3.9303536623252393 1.272004017756538
head 9.977659451699175 -1.8847976618407498 0.31264978889435346
lclavicle -2.561584391248254e-15 -2.7556065369876945e-15
lhumerus -26.384423376830405 -1.2623785506241698 81.16874105903193
lradius 26.308396968038448
lwrist 8.457080965772649
lhand -29.37068675102666 19.04807173257974
lfingers nan
lthumb -2.335465878321151 49.35075095960303
rclavicle -2.654674076282571e-15 -2.797581676926612e-15
rhumerus -34.86036971021542 -23.077274617112206 -76.75120167729176
rradius 31.976806975143123
rwrist 3.260501847243739
rhand -17.495706842139533 22.85853002739835
rfingers nan
rthumb 8.826847568817044 -6.677216611144346
